<?xml version="1.0" encoding="utf-8"?>
<!-- Generator: Adobe Illustrator 28.3.0, SVG Export Plug-In . SVG Version: 6.00 Build 0)  -->
<svg version="1.1" id="Camada_1" xmlns="http://www.w3.org/2000/svg" xmlns:xlink="http://www.w3.org/1999/xlink" x="0px" y="0px"
	 viewBox="0 0 257.21 230.49" style="enable-background:new 0 0 257.21 230.49;" xml:space="preserve">
<style type="text/css">
	.st0{fill:#FFFFFF;}
	.st1{fill:#E9F1F2;}
	.st2{fill:#00A99B;}
</style>
<g>
	<path class="st2" d="M49.9,162.94c-7.89-14.1-11.83-30-11.83-47.69c0-17.69,4-33.58,12.01-47.69c8.01-14.1,18.83-25.22,32.45-33.35
		c13.63-8.12,29.04-12.19,46.26-12.19c17.45,0,32.93,4.07,46.43,12.19c13.5,8.13,24.2,19.18,32.1,33.17
		c7.89,13.98,11.83,29.94,11.83,47.87c0,17.45-4.01,33.23-12.01,47.33c-8.01,14.11-18.83,25.28-32.45,33.53s-28.93,12.37-45.9,12.37
		c-17.21,0-32.69-4.07-46.44-12.19C68.6,188.16,57.79,177.04,49.9,162.94z M189.21,153.61c5.85-11.23,8.78-24.02,8.78-38.37
		c0-14.58-2.99-27.49-8.96-38.73c-5.98-11.23-14.16-20.02-24.56-26.36c-10.4-6.33-22.29-9.5-35.68-9.5
		c-13.63,0-25.64,3.17-36.04,9.5c-10.4,6.34-18.59,15.12-24.56,26.36c-5.98,11.24-8.96,24.15-8.96,38.73
		c0,14.34,2.99,27.14,8.96,38.37c3.77,7.09,8.42,13.23,13.95,18.41c3.24,3.03,6.77,5.74,10.61,8.12c10.4,6.45,22.41,9.68,36.04,9.68
		s25.64-3.23,36.04-9.68C175.22,173.69,183.35,164.85,189.21,153.61z"/>
	<path class="st2" d="M188.57,89.55c-2.15-7.7-9.73-31.44-28.51-31.44c-10.77,0-19.5,8.73-19.5,19.5s8.73,19.5,19.5,19.5
		c3.04,0,5.9-0.71,8.47-1.95c21.91,47.74-11.87,79.19-55.31,83.79c-1.49,0.16-1.52,2.33-0.03,2.5c9.92,1.1,21.32,0.58,28.67-0.82
		C183.57,172.68,200.96,133.88,188.57,89.55z"/>
	<path class="st2" d="M155.34,116.81c-1.03-3.68-4.66-15.04-13.64-15.04c-5.15,0-9.33,4.18-9.33,9.33s4.18,9.33,9.33,9.33
		c1.45,0,2.82-0.34,4.05-0.93c10.48,22.84-5.68,37.88-26.46,40.08c-0.71,0.08-0.73,1.12-0.01,1.19c4.74,0.53,10.2,0.28,13.71-0.39
		C152.95,156.58,161.27,138.02,155.34,116.81z"/>
</g>
</svg>
