<?xml version="1.0" encoding="utf-8"?>
<!-- Generator: Adobe Illustrator 28.3.0, SVG Export Plug-In . SVG Version: 6.00 Build 0)  -->
<svg version="1.1" id="Camada_1" xmlns="http://www.w3.org/2000/svg" xmlns:xlink="http://www.w3.org/1999/xlink" x="0px" y="0px"
	 viewBox="0 0 514.43 213.45" style="enable-background:new 0 0 514.43 213.45;" xml:space="preserve">
<style type="text/css">
	.st0{fill:#FFFFFF;}
	.st1{fill:#E9F1F2;}
	.st2{fill:#00A99B;}
</style>
<g>
	<path class="st0" d="M118.62,104.75h6.89l0.13,14.41c2.46-5.19,5.99-9.23,10.59-12.12c4.59-2.89,9.78-4.34,15.56-4.34
		c5.95,0,11.22,1.43,15.82,4.27c4.59,2.85,8.21,6.76,10.84,11.73c2.63,4.97,3.95,10.69,3.95,17.16c0,6.21-1.38,11.82-4.15,16.84
		c-2.76,5.02-6.53,8.99-11.29,11.93c-4.76,2.93-10.08,4.4-15.94,4.4c-5.53,0-10.46-1.38-14.8-4.15c-4.34-2.76-7.74-6.65-10.2-11.67
		v45.02h-7.4V104.75z M162.94,158.96c3.7-2.3,6.61-5.44,8.74-9.44c2.12-4,3.19-8.55,3.19-13.65c0-5.19-1.06-9.76-3.19-13.71
		c-2.13-3.95-5.04-7.08-8.74-9.37c-3.7-2.3-7.93-3.44-12.69-3.44c-4.76,0-9.01,1.15-12.76,3.44c-3.74,2.3-6.68,5.42-8.8,9.37
		c-2.13,3.95-3.19,8.53-3.19,13.71c0,5.1,1.06,9.65,3.19,13.65c2.12,4,5.06,7.14,8.8,9.44c3.74,2.3,7.99,3.44,12.76,3.44
		C155.01,162.4,159.24,161.25,162.94,158.96z"/>
	<path class="st0" d="M196.04,104.75h6.89l0.13,14.41c1.7-4.85,4.34-8.61,7.91-11.29c3.57-2.68,7.78-4.02,12.63-4.02
		c1.28,0,2.59,0.11,3.95,0.32c1.36,0.21,2.38,0.49,3.06,0.83l-0.77,6.89c-2.13-0.85-4.46-1.28-7.02-1.28
		c-5.95,0-10.67,2.25-14.16,6.76c-3.49,4.51-5.23,10.67-5.23,18.49v31.12h-7.4V104.75z"/>
	<path class="st0" d="M240.55,83.96c-1.02-1.02-1.53-2.34-1.53-3.95c0-1.7,0.51-3.06,1.53-4.08c1.02-1.02,2.34-1.53,3.95-1.53
		c1.61,0,2.93,0.51,3.95,1.53c1.02,1.02,1.53,2.38,1.53,4.08c0,1.62-0.51,2.93-1.53,3.95c-1.02,1.02-2.34,1.53-3.95,1.53
		C242.89,85.49,241.57,84.98,240.55,83.96z M240.93,104.75h7.4v62.24h-7.4V104.75z"/>
	<path class="st0" d="M299.22,164.12c-4.42,3.27-10.2,4.91-17.35,4.91c-3.91,0-7.8-0.55-11.67-1.66c-3.87-1.1-7.08-2.55-9.63-4.34
		l1.15-6.63c2.63,1.87,5.8,3.4,9.5,4.59c3.7,1.19,7.25,1.79,10.65,1.79c5.1,0,9.12-1.02,12.05-3.06s4.4-4.76,4.4-8.16
		c0-3.23-1.15-5.76-3.44-7.59c-2.3-1.83-6.63-3.63-13.01-5.42c-7.23-2.04-12.35-4.48-15.37-7.33c-3.02-2.85-4.53-6.61-4.53-11.29
		c0-5.27,2.02-9.46,6.06-12.56c4.04-3.1,9.42-4.66,16.13-4.66c3.4,0,6.78,0.45,10.14,1.34c3.36,0.89,6.23,2.06,8.61,3.51l-1.28,6.38
		c-2.47-1.61-5.25-2.85-8.35-3.7c-3.11-0.85-6.23-1.28-9.38-1.28c-4.59,0-8.21,0.91-10.84,2.74c-2.64,1.83-3.95,4.36-3.95,7.59
		c0,3.15,1.13,5.63,3.38,7.46c2.25,1.83,6.31,3.55,12.18,5.17c7.82,2.21,13.31,4.76,16.45,7.65c3.14,2.89,4.72,6.76,4.72,11.61
		C305.85,156.53,303.64,160.85,299.22,164.12z"/>
	<path class="st0" d="M318.6,104.75h6.89l0.13,12.75c1.79-4.68,4.59-8.31,8.42-10.91c3.83-2.59,8.25-3.89,13.27-3.89
		c5.36,0,9.84,1.36,13.46,4.08c3.61,2.72,6.19,6.68,7.72,11.86c1.61-4.85,4.44-8.71,8.48-11.61c4.04-2.89,8.74-4.34,14.09-4.34
		c7.23,0,12.84,2.32,16.84,6.95c4,4.64,5.99,11.2,5.99,19.71v37.63h-7.4v-36.48c0-6.97-1.45-12.26-4.34-15.88
		c-2.89-3.61-7.1-5.42-12.63-5.42c-5.95,0-10.71,2.17-14.29,6.5c-3.57,4.34-5.36,10.16-5.36,17.47v33.8h-7.4v-36.48
		c0-14.2-5.61-21.3-16.84-21.3c-5.95,0-10.71,2.15-14.28,6.44c-3.57,4.29-5.36,10.1-5.36,17.41v33.93h-7.4V104.75z"/>
	<path class="st0" d="M431.35,152.84c-2.81-5.02-4.21-10.67-4.21-16.96c0-6.29,1.42-11.95,4.27-16.96
		c2.85-5.02,6.7-8.97,11.54-11.86c4.85-2.89,10.33-4.34,16.45-4.34c6.21,0,11.71,1.45,16.52,4.34c4.8,2.89,8.61,6.82,11.42,11.8
		c2.81,4.97,4.21,10.65,4.21,17.03c0,6.21-1.42,11.82-4.27,16.84c-2.85,5.02-6.7,8.99-11.54,11.93c-4.85,2.93-10.29,4.4-16.33,4.4
		c-6.12,0-11.63-1.45-16.52-4.34C438.01,161.81,434.16,157.85,431.35,152.84z M480.91,149.52c2.08-4,3.12-8.55,3.12-13.65
		c0-5.19-1.06-9.78-3.19-13.77c-2.13-4-5.04-7.12-8.74-9.38c-3.7-2.25-7.93-3.38-12.69-3.38c-4.85,0-9.12,1.13-12.82,3.38
		c-3.7,2.25-6.61,5.38-8.74,9.38c-2.13,4-3.19,8.59-3.19,13.77c0,5.1,1.06,9.65,3.19,13.65c2.12,4,5.04,7.14,8.74,9.44
		c3.7,2.3,7.97,3.44,12.82,3.44c4.85,0,9.12-1.15,12.82-3.44C475.93,156.66,478.82,153.52,480.91,149.52z"/>
</g>
<path class="st2" d="M31.16,88.02c-4.08-7.29-6.11-15.5-6.11-24.64c0-9.14,2.07-17.35,6.21-24.64c4.14-7.29,9.73-13.03,16.77-17.23
	c7.04-4.2,15.01-6.3,23.9-6.3c9.01,0,17.02,2.1,23.99,6.3c6.98,4.2,12.51,9.91,16.59,17.14c4.08,7.23,6.11,15.47,6.11,24.74
	c0,9.02-2.07,17.17-6.21,24.46c-4.14,7.29-9.73,13.06-16.77,17.33c-7.04,4.26-14.95,6.39-23.72,6.39c-8.89,0-16.89-2.1-24-6.3
	C40.82,101.06,35.23,95.31,31.16,88.02z M103.14,83.21c3.02-5.8,4.54-12.41,4.54-19.83c0-7.53-1.55-14.2-4.63-20.01
	c-3.09-5.8-7.32-10.34-12.69-13.62c-5.37-3.27-11.52-4.91-18.44-4.91c-7.04,0-13.25,1.64-18.62,4.91
	c-5.37,3.27-9.61,7.81-12.69,13.62c-3.09,5.81-4.63,12.48-4.63,20.01c0,7.41,1.54,14.02,4.63,19.83c1.95,3.66,4.35,6.84,7.21,9.51
	c1.67,1.57,3.5,2.97,5.48,4.2c5.37,3.34,11.58,5,18.62,5s13.25-1.67,18.62-5C95.92,93.58,100.12,89.01,103.14,83.21z"/>
<path class="st2" d="M102.81,50.1c-1.11-3.98-5.03-16.25-14.73-16.25C82.52,33.85,78,38.37,78,43.93s4.51,10.08,10.08,10.08
	c1.57,0,3.05-0.37,4.37-1.01c11.32,24.67-6.13,40.92-28.58,43.3c-0.77,0.08-0.79,1.21-0.02,1.29c5.12,0.57,11.01,0.3,14.81-0.42
	C100.23,93.06,109.22,73.01,102.81,50.1z"/>
<path class="st2" d="M85.64,64.19c-0.53-1.9-2.41-7.77-7.05-7.77c-2.66,0-4.82,2.16-4.82,4.82s2.16,4.82,4.82,4.82
	c0.75,0,1.46-0.18,2.09-0.48c5.41,11.8-2.93,19.57-13.67,20.71c-0.37,0.04-0.38,0.58-0.01,0.62c2.45,0.27,5.27,0.14,7.08-0.2
	C84.41,84.74,88.7,75.15,85.64,64.19z"/>
</svg>
